<svg width="43" height="23" viewBox="0 0 43 23" fill="none" xmlns="http://www.w3.org/2000/svg">
<path d="M8.97328 5.65695C10.2053 5.65695 11.3004 5.92095 12.2586 6.44895C13.2364 6.97695 13.9991 7.75918 14.5466 8.79562C15.1137 9.83207 15.3973 11.0836 15.3973 12.5503V22.0836H12.0826V13.049C12.0826 11.6018 11.7208 10.497 10.9973 9.73429C10.2737 8.95206 9.28617 8.56095 8.03462 8.56095C6.78306 8.56095 5.78573 8.95206 5.04262 9.73429C4.31906 10.497 3.95728 11.6018 3.95728 13.049V22.0836H0.613281V0.376953H3.95728V7.79829C4.52439 7.11384 5.23817 6.58584 6.09862 6.21429C6.97862 5.84273 7.93684 5.65695 8.97328 5.65695Z" fill="#43403B"/>
<path d="M28.0228 5.65695C29.2548 5.65695 30.3499 5.92095 31.3081 6.44895C32.2859 6.97695 33.0485 7.75918 33.5961 8.79562C34.1632 9.83207 34.4468 11.0836 34.4468 12.5503V22.0836H31.1321V13.049C31.1321 11.6018 30.7703 10.497 30.0468 9.73429C29.3232 8.95206 28.3357 8.56095 27.0841 8.56095C25.8325 8.56095 24.8352 8.95206 24.0921 9.73429C23.3685 10.497 23.0068 11.6018 23.0068 13.049V22.0836H19.6628V0.376953H23.0068V7.79829C23.5739 7.11384 24.2877 6.58584 25.1481 6.21429C26.0281 5.84273 26.9863 5.65695 28.0228 5.65695Z" fill="#43403B"/>
<path d="M40.0616 22.289C39.4554 22.289 38.9469 22.0836 38.5362 21.673C38.1256 21.2623 37.9202 20.7538 37.9202 20.1476C37.9202 19.5414 38.1256 19.033 38.5362 18.6223C38.9469 18.2116 39.4554 18.0063 40.0616 18.0063C40.6482 18.0063 41.1469 18.2116 41.5576 18.6223C41.9682 19.033 42.1736 19.5414 42.1736 20.1476C42.1736 20.7538 41.9682 21.2623 41.5576 21.673C41.1469 22.0836 40.6482 22.289 40.0616 22.289Z" fill="#12B379"/>
</svg>
